<?xml version="1.0" encoding="UTF-8"?>
<svg id="Capa_1" xmlns="http://www.w3.org/2000/svg" version="1.1" viewBox="0 0 598.2 100">
  <!-- Generator: Adobe Illustrator 29.3.0, SVG Export Plug-In . SVG Version: 2.1.0 Build 146)  -->
  <defs>
    <style>
      .st0 {
        fill: none;
        stroke: #010000;
        stroke-width: 1.7px;
      }

      .st1 {
        fill: #292b6b;
      }

      .st2, .st3, .st4 {
        isolation: isolate;
      }

      .st3 {
        fill: #1c5d91;
        font-family: GillSansMT-Bold, 'Gill Sans MT';
        font-weight: 700;
      }

      .st3, .st4 {
        font-size: 32.8px;
      }

      .st5 {
        fill: #1b75bb;
      }

      .st6 {
        fill: #5c79b9;
      }

      .st7 {
        fill: #4a7729;
      }

      .st4 {
        fill: #1d1d1b;
        font-family: GillSansMT, 'Gill Sans MT';
      }

      .st8 {
        fill: #9aa1cf;
      }
    </style>
  </defs>
  <g id="Capa_11">
    <g>
      <g>
        <path class="st7" d="M48.6,34.5h-9.8c-.9,0-1.7.8-1.7,1.7v38.2c0,7.7-3.3,11.3-10.3,11.3s-10.3-3.6-10.3-11.3v-38.2c0-.9-.8-1.7-1.7-1.7H5c-.8,0-1.6.8-1.6,1.7v40.5c0,6.3,2.1,11.4,6,15,4.1,3.6,10,5.5,17.4,5.5h0c7.5,0,13.3-1.8,17.4-5.5,3.9-3.5,6-8.7,6-15v-40.5c0-.9-.8-1.7-1.6-1.7"/>
        <path class="st7" d="M71.6,73.3l9.3-27.4,9.1,27.4h-18.4ZM101.9,87.5l-18.4-53.3h-.3l-18.7,53.4-2.9,7.9h-7.7v1.7h19.1v-1.7h-8.7l2.4-7.7,4.3-12.4h19.6l4.1,12.4,2.5,7.7h-13.3v1.7h29.4v-1.7h-8.3l-2.9-8s-.2,0-.2,0Z"/>
        <path class="st7" d="M182.5,34.5h-13c-.5,0-1.3.3-1.6.8l-15.9,18.9c-.1,0-.3.2-.5.2h-.1c-.2,0-.4,0-.5-.2l-15.9-18.9c-.4-.5-1.1-.8-1.6-.8h-13c-.8,0-1.7.9-1.7,1.7v59.2c0,.9.8,1.7,1.7,1.7h10.1c.9,0,1.7-.8,1.7-1.7v-42l18.1,21.1h.1c.2.3.6.5.9.5s.7,0,.9-.4h.1l18.1-21.2v42c0,.9.8,1.7,1.8,1.7h10.1c.8,0,1.7-.9,1.7-1.7v-59.2c0-.9-.8-1.7-1.7-1.7"/>
        <polygon class="st5" points="97.8 2.9 92.4 34.4 118.8 23.3 118.8 2.9 97.8 2.9"/>
        <line class="st0" x1="216.7" y1="3.1" x2="216.7" y2="97.3"/>
      </g>
      <g>
        <g>
          <path class="st1" d="M309.9,86.4c0,6-6.8,10.9-15.2,10.9s-15.2-4.9-15.2-10.9,6.8-10.9,15.2-10.9,15.2,4.9,15.2,10.9Z"/>
          <path class="st1" d="M334,69.2c0,5.7-6.8,10.3-15.2,10.3s-15.2-4.6-15.2-10.3,6.8-10.3,15.2-10.3,15.2,4.6,15.2,10.3Z"/>
          <path class="st1" d="M287.2,69.2c0,5.7-6.8,10.3-15.2,10.3s-15.2-4.6-15.2-10.3,6.8-10.3,15.2-10.3,15.2,4.6,15.2,10.3Z"/>
          <path class="st1" d="M310.6,54c0,5.7-6.8,10.3-15.2,10.3s-15.2-4.6-15.2-10.3,6.8-10.3,15.2-10.3,15.2,4.6,15.2,10.3Z"/>
        </g>
        <g>
          <path class="st6" d="M291.4,24.8c2.9,2.6,1.3,9.3-3.7,14.9s-11.4,8.1-14.3,5.6c-2.9-2.6-1.3-9.3,3.7-14.9,5-5.7,11.4-8.1,14.3-5.6Z"/>
          <path class="st6" d="M293.1,4.2c2.8,2.4,1,9-4,14.6-5,5.6-11.2,8.3-14,5.8-2.8-2.4-1-9,4-14.6,5-5.7,11.2-8.3,14-5.8Z"/>
          <path class="st6" d="M269.4,39.6c2.8,2.4.7,9.2-4.5,15.2s-11.7,8.8-14.5,6.4c-2.8-2.4-.7-9.2,4.5-15.2,5.2-6,11.7-8.8,14.5-6.4Z"/>
          <path class="st6" d="M270.7,18.9c2.8,2.4.7,9.2-4.5,15.2s-11.7,8.9-14.5,6.4c-2.8-2.4-.7-9.2,4.5-15.2,5.2-6,11.7-8.8,14.5-6.4Z"/>
        </g>
        <path class="st8" d="M320.4,18c3-2.5,9.6.6,14.6,6.8,5,6.2,6.6,13.3,3.6,15.7-3,2.5-9.6-.6-14.6-6.8s-6.6-13.3-3.6-15.7Z"/>
        <path class="st8" d="M297.8,3.8c2.9-2.3,9,.6,13.7,6.4,4.7,5.9,6.2,12.5,3.4,14.8-2.9,2.3-9-.6-13.7-6.4-4.7-5.9-6.2-12.5-3.4-14.8"/>
        <path class="st8" d="M321.4,39.2c2.9-2.3,9.2.8,14.2,7s6.7,13.1,3.8,15.4c-2.9,2.3-9.2-.9-14.2-7-5-6.2-6.7-13.1-3.8-15.4Z"/>
        <path class="st8" d="M297.3,24c2.8-2.4,9.2.6,14.4,6.7,5.1,6.1,7,12.9,4.2,15.3s-9.2-.7-14.4-6.7c-5.1-6.1-7-12.9-4.2-15.3Z"/>
      </g>
      <g class="st2">
        <g class="st2">
          <text class="st4" transform="translate(359.6 58)"><tspan x="0" y="0">FACULTAD</tspan></text>
        </g>
        <g class="st2">
          <text class="st4" transform="translate(359.6 97.4)"><tspan x="0" y="0">DE</tspan></text>
        </g>
        <g class="st2">
          <text class="st3" transform="translate(410 97.4)"><tspan x="0" y="0">CIENCIAS</tspan></text>
        </g>
      </g>
    </g>
  </g>
</svg>